<svg width="20" height="20" viewBox="0 0 20 20" fill="none" xmlns="http://www.w3.org/2000/svg"><path d="M3.012 15.69h-.857A2.157 2.157 0 000 17.845v1.57c0 .323.262.585.586.585h2.527c-.065-.183-.1-.38-.1-.586V15.69zm4.184-3.138h-.857a2.158 2.158 0 00-2.155 2.155v4.707c0 .324.262.586.586.586h2.527a1.75 1.75 0 01-.101-.586v-6.862zm12.689-6.666L15.7.237a.586.586 0 00-.942 0l-4.184 5.649a.586.586 0 00.471.934h1.506v12.594c0 .324.262.586.586.586h4.184a.586.586 0 00.586-.586V6.82h1.506a.586.586 0 00.47-.934z" fill="#fff"/><path d="M11.38 9.414h-.857a2.157 2.157 0 00-2.155 2.155v7.845c0 .324.262.586.586.586h2.527a1.75 1.75 0 01-.1-.586v-10z" fill="#fff"/></svg>