<?xml version="1.0" encoding="utf-8"?><svg width="18" height="12" xmlns="http://www.w3.org/2000/svg" viewBox="0 0 18 12"><path d="M16.531 0H.72C.299 0 0 .302 0 .724v10.552c0 .422.3.724.719.724H16.53c.42 0 .719-.302.719-.724V.724c0-.422-.3-.724-.719-.724zm-5.27 6.513c1.317.904 4.791 3.618 4.791 3.618.12.12.12.361.06.482-.06.12-.3.241-.42.12 0 0-3.653-2.653-5.09-3.617-.06-.06-.12 0-.12 0L8.924 8.382c-.06.06-.18.12-.299.12-.12 0-.24-.06-.3-.12L6.769 7.116s-.06-.06-.12 0c-1.377.964-5.03 3.678-5.03 3.678-.12.12-.42 0-.48-.12-.06-.121-.06-.362.06-.483 0 0 3.474-2.653 4.792-3.558.06-.06 0-.12 0-.12L1.078 1.99c-.18-.18-.24-.422-.12-.603a.33.33 0 01.3-.181c.12 0 .18 0 .3.06l6.947 6.09c.06.061.12.061.18.061s.12 0 .18-.06l6.888-6.09c.06-.061.12-.061.24-.061.119 0 .239.06.299.18.12.182.06.423-.12.604L11.26 6.452c0-.06-.06 0 0 .06z" fill="currentColor"/></svg>