<?xml version="1.0" encoding="utf-8"?><svg width="218" height="59" xmlns="http://www.w3.org/2000/svg" viewBox="0 0 218 59"><g class="logo__ring" fill="currentColor"><path d="M207.8 0c-13.1 0-24.7 11.8-24.7 11.8S194.7 3 204.8 3c12.6 0 12 9 12 9s4.9-12-9-12z"/><path d="M206.1 4.4h-1.5c-.9 0-1.8.2-2.8.4 2.6 0 4.7.8 6.2 2.4 5.3 5.7-.4 19.8-12.9 31.5s-26.9 16.7-32.3 11c-.7-.7-1.1-1.5-1.5-2.5-.3 3.8.6 6.8 2.6 8.8 1.8 1.8 4.3 2.7 7.5 2.7 6.8 0 15.9-4.3 24.3-11.5.9-.8 8.9-8 15-17.8 5.5-9.7 6.3-18.1 2.1-22.3-1.5-1.7-3.8-2.6-6.7-2.7z"/></g></svg>