<?xml version="1.0" encoding="utf-8"?><svg width="218" height="59" xmlns="http://www.w3.org/2000/svg" viewBox="0 0 218 59"><g class="logo__text" fill="currentColor"><path d="M24.7 16.5H1.3L0 23h7.5L4.3 38.6h8.5L15.9 23h7.5l1.3-6.5zM47.7 23.1c0-3.8-2.9-6.6-7.5-6.6H26.6l-4.5 22.1h8.5l1.3-6.3h4.9c7.6 0 10.9-5.1 10.9-9.2zm-13 4h-2.1l1.1-5.4h2.4c2.6 0 2.9 1.5 2.9 2.2 0 1.5-1 3.2-4.3 3.2zM55.2 16.5L43 38.6h8.5l2.4-4.7h6.7l.5 4.7H70l-3.4-22.1H55.2zm.7 12.2l3.7-6.9h.1l.9 6.9h-4.7zM89.7 16.5l-1.6 7.6h-5.6l1.5-7.6h-8.4l-4.5 22.1h8.4l1.7-8.1h5.6l-1.6 8.1h8.5l4.4-22.1h-8.4zM107 28.8c0-3.6 2.8-7 7.4-7 1.3 0 2.9.3 4.3.9l1.2-5.8-.5-.1c-1.1-.2-3.2-.6-5.7-.6C103.1 16.1 98 23.3 98 30c0 6.2 5.1 9 11 9 1.8 0 3.9-.2 6.5-.9l1.2-5.9c-2.4.8-3.9.9-4.6.9-2.9 0-5.1-1.4-5.1-4.3zM146.4 16.5h-9.6l-7 8.7h-.1l1.8-8.7H123l-4.5 22.1h8.5l1.9-9.4h.1l3.5 9.4h10.1l-5.7-11.8 9.5-10.3z"/><path d="M169 24.7c0-3.6-2-8.6-10.4-8.6-12.2 0-15 9.8-15 14.3 0 4 2.3 8.6 10.2 8.6 12.4 0 15.2-9.9 15.2-14.3zm-10.1 5.6c-1 2.7-2.8 3.4-3.9 3.4-.7 0-2.5-.2-2.5-3.1 0-1.7.6-4.4 1.1-5.8 1.2-3 3-3.4 3.9-3.4.8 0 2.5.3 2.5 3 .1 1.7-.5 4.6-1.1 5.9zM192.1 38.6c4.1-3.9 7.5-8 10-12.1l2-10.1h-12.5l-5.2 12.1h-.2l-.4-12.1h-12.5l-4.5 22.1h7.2l3.5-17.4h.2l.7 17.4h7l7.9-17.4h.2l-3.4 17.5z"/></g></svg>