<?xml version="1.0" encoding="utf-8"?><svg width="20" height="20" fill="none" xmlns="http://www.w3.org/2000/svg" viewBox="0 0 20 20"><g clip-path="url(#fclip0)" fill="#fff"><path d="M4.66 4.055l7.952-2.176-.421-.853a1.119 1.119 0 00-1.5-.508L3.571 4.055h1.089zM15.08 1.942c-.098 0-.197.013-.295.04l-1.868.512-5.705 1.561h9.297l-.35-1.284a1.119 1.119 0 00-1.079-.83zM17.676 4.841H1.122a1.117 1.117 0 00-1.082.83c-.024.093-.04.192-.04.293v12.512c0 .62.502 1.123 1.12 1.123h16.554c.618 0 1.12-.503 1.12-1.123v-3.133h-6.646a1.908 1.908 0 01-1.903-1.909v-2.497c0-.517.206-.986.54-1.33a1.883 1.883 0 011.361-.577h6.648V5.964c.002-.62-.5-1.123-1.118-1.123z"/><path d="M19.58 10.104a1.119 1.119 0 00-.755-.295H12.15c-.619 0-1.12.504-1.12 1.123v2.5c0 .62.501 1.123 1.12 1.123H18.826c.127 0 .248-.022.362-.06a1.12 1.12 0 00.757-1.062v-2.5a1.12 1.12 0 00-.365-.83zm-5.093 2.302a.56.56 0 01-.56.561h-.372a.56.56 0 01-.56-.561v-.373a.565.565 0 01.56-.561h.372c.309 0 .56.25.56.56v.374z"/></g><defs><clipPath id="fclip0"><path fill="#fff" d="M0 0h19.945v20H0z"/></clipPath></defs></svg>