<?xml version="1.0" encoding="utf-8"?>
<svg xmlns="http://www.w3.org/2000/svg" xmlns:xlink="http://www.w3.org/1999/xlink">
  <symbol viewBox="0 0 12 8" id="arrow" xmlns="http://www.w3.org/2000/svg">
    <path fill-rule="evenodd" clip-rule="evenodd" d="M10.6 7.4L12 6 6 0 0 6l1.4 1.4L6 2.8l4.6 4.6z" fill="currentColor"/>
  </symbol>
  <symbol viewBox="0 0 18 12" id="envelope" xmlns="http://www.w3.org/2000/svg">
    <path d="M16.531 0H.72C.299 0 0 .302 0 .724v10.552c0 .422.3.724.719.724H16.53c.42 0 .719-.302.719-.724V.724c0-.422-.3-.724-.719-.724zm-5.27 6.513c1.317.904 4.791 3.618 4.791 3.618.12.12.12.361.06.482-.06.12-.3.241-.42.12 0 0-3.653-2.653-5.09-3.617-.06-.06-.12 0-.12 0L8.924 8.382c-.06.06-.18.12-.299.12-.12 0-.24-.06-.3-.12L6.769 7.116s-.06-.06-.12 0c-1.377.964-5.03 3.678-5.03 3.678-.12.12-.42 0-.48-.12-.06-.121-.06-.362.06-.483 0 0 3.474-2.653 4.792-3.558.06-.06 0-.12 0-.12L1.078 1.99c-.18-.18-.24-.422-.12-.603a.33.33 0 01.3-.181c.12 0 .18 0 .3.06l6.947 6.09c.06.061.12.061.18.061s.12 0 .18-.06l6.888-6.09c.06-.061.12-.061.24-.061.119 0 .239.06.299.18.12.182.06.423-.12.604L11.26 6.452c0-.06-.06 0 0 .06z" fill="currentColor"/>
  </symbol>
  <symbol viewBox="0 0 218 59" id="logo-ring" xmlns="http://www.w3.org/2000/svg">
    <g class="logo__ring" fill="currentColor">
      <path d="M207.8 0c-13.1 0-24.7 11.8-24.7 11.8S194.7 3 204.8 3c12.6 0 12 9 12 9s4.9-12-9-12z"/>
      <path d="M206.1 4.4h-1.5c-.9 0-1.8.2-2.8.4 2.6 0 4.7.8 6.2 2.4 5.3 5.7-.4 19.8-12.9 31.5s-26.9 16.7-32.3 11c-.7-.7-1.1-1.5-1.5-2.5-.3 3.8.6 6.8 2.6 8.8 1.8 1.8 4.3 2.7 7.5 2.7 6.8 0 15.9-4.3 24.3-11.5.9-.8 8.9-8 15-17.8 5.5-9.7 6.3-18.1 2.1-22.3-1.5-1.7-3.8-2.6-6.7-2.7z"/>
    </g>
  </symbol>
  <symbol viewBox="0 0 218 59" id="logo-text" xmlns="http://www.w3.org/2000/svg">
    <g class="logo__text" fill="currentColor">
      <path d="M24.7 16.5H1.3L0 23h7.5L4.3 38.6h8.5L15.9 23h7.5l1.3-6.5zM47.7 23.1c0-3.8-2.9-6.6-7.5-6.6H26.6l-4.5 22.1h8.5l1.3-6.3h4.9c7.6 0 10.9-5.1 10.9-9.2zm-13 4h-2.1l1.1-5.4h2.4c2.6 0 2.9 1.5 2.9 2.2 0 1.5-1 3.2-4.3 3.2zM55.2 16.5L43 38.6h8.5l2.4-4.7h6.7l.5 4.7H70l-3.4-22.1H55.2zm.7 12.2l3.7-6.9h.1l.9 6.9h-4.7zM89.7 16.5l-1.6 7.6h-5.6l1.5-7.6h-8.4l-4.5 22.1h8.4l1.7-8.1h5.6l-1.6 8.1h8.5l4.4-22.1h-8.4zM107 28.8c0-3.6 2.8-7 7.4-7 1.3 0 2.9.3 4.3.9l1.2-5.8-.5-.1c-1.1-.2-3.2-.6-5.7-.6C103.1 16.1 98 23.3 98 30c0 6.2 5.1 9 11 9 1.8 0 3.9-.2 6.5-.9l1.2-5.9c-2.4.8-3.9.9-4.6.9-2.9 0-5.1-1.4-5.1-4.3zM146.4 16.5h-9.6l-7 8.7h-.1l1.8-8.7H123l-4.5 22.1h8.5l1.9-9.4h.1l3.5 9.4h10.1l-5.7-11.8 9.5-10.3z"/>
      <path d="M169 24.7c0-3.6-2-8.6-10.4-8.6-12.2 0-15 9.8-15 14.3 0 4 2.3 8.6 10.2 8.6 12.4 0 15.2-9.9 15.2-14.3zm-10.1 5.6c-1 2.7-2.8 3.4-3.9 3.4-.7 0-2.5-.2-2.5-3.1 0-1.7.6-4.4 1.1-5.8 1.2-3 3-3.4 3.9-3.4.8 0 2.5.3 2.5 3 .1 1.7-.5 4.6-1.1 5.9zM192.1 38.6c4.1-3.9 7.5-8 10-12.1l2-10.1h-12.5l-5.2 12.1h-.2l-.4-12.1h-12.5l-4.5 22.1h7.2l3.5-17.4h.2l.7 17.4h7l7.9-17.4h.2l-3.4 17.5z"/>
    </g>
  </symbol>
  <symbol viewBox="0 0 14 14" id="phone" xmlns="http://www.w3.org/2000/svg">
    <path fill-rule="evenodd" clip-rule="evenodd" d="M.778 0A.777.777 0 000 .778C0 8.08 5.92 14 13.222 14c.43 0 .778-.348.778-.778V10.5a.777.777 0 00-.778-.777c-.97 0-1.904-.156-2.778-.443a.775.775 0 00-.79.19l-1.711 1.714a11.73 11.73 0 01-5.125-5.122l1.711-1.717a.778.778 0 00.19-.789A8.92 8.92 0 014.278.778.777.777 0 003.5 0H.778z" fill="currentColor"/>
  </symbol>
</svg>